<?xml version="1.0" encoding="utf-8"?>
<!-- Generator: Adobe Illustrator 19.2.1, SVG Export Plug-In . SVG Version: 6.00 Build 0)  -->
<svg version="1.1" id="Layer_1" xmlns="http://www.w3.org/2000/svg" xmlns:xlink="http://www.w3.org/1999/xlink" x="0px" y="0px"
	 viewBox="0 0 31.2 31.2" style="enable-background:new 0 0 31.2 31.2;" xml:space="preserve">
<style type="text/css">
	.st0{fill:none;stroke:#4D4D4D;stroke-miterlimit:10;}
	.st1{fill:#4D4D4D;}
	.st2{fill:#1A1A1A;}
	.st3{fill:#2985E1;}
	.st4{fill:#297BE1;}
	.st5{fill:#2971E1;}
	.st6{fill:#2967E1;}
	.st7{fill:#295DE1;}
	.st8{fill:#2953E1;}
	.st9{fill:#2949E1;}
	.st10{fill:#293EE1;}
	.st11{fill:#2934E1;}
	.st12{fill:#292AE1;}
	.st13{fill:#FFFFFF;}
</style>
<path class="st1" d="M20.5,24.7H11c-1.1,0-1.7-1-2-2l-4-14.2c0-1.1,0.9-2,2-2l16.5,2c1.1,0,2,0.9,2,2l-3.2,12.7
	C21.9,24.4,21.3,24.7,20.5,24.7z"/>
<g>
	<g>
		<path class="st13" d="M9,9.6C9.1,9.7,9.1,9.9,9.1,10C9.1,9.9,9,9.7,9,9.6z"/>
		<path class="st13" d="M23.4,10.1c-1.1,0-2.1-0.1-3.2-0.1c-1.9-0.1-3.8-0.2-5.7-0.2c-0.7,0-1.4-0.1-2.2-0.1c-0.2,0-0.4,0-0.5,0.2
			c-0.2,0.2-0.2,0.4-0.1,0.6c0.1,0.2,0.3,0.4,0.5,0.4c0.3,0,0.5,0,0.8,0c1.1,0,2.2,0.1,3.3,0.1c1.2,0,2.3,0.1,3.5,0.1
			c0.9,0,1.9,0.1,2.8,0.1c0.1,0,0.1,0,0.1,0.1c-0.3,0.9-0.6,1.8-0.9,2.7c-0.4,1.2-0.8,2.4-1.1,3.5c0,0.1-0.1,0.1-0.2,0.1
			c-3,0-6,0-9,0c-0.1,0-0.1,0-0.2-0.1c-0.2-1.4-0.5-2.7-0.7-4.1c-0.2-1-0.4-1.9-0.5-2.9C10,9.9,9.9,9.3,9.8,8.7
			c0-0.3-0.2-0.4-0.4-0.5c-0.9-0.3-1.7-0.7-2.6-1C6.4,7,6.4,7.1,6.3,7.5c0,0,0,0,0,0c0,0.1,0,0.2,0,0.3c0,0.2,0.2,0.4,0.4,0.4
			c0.6,0.2,1.1,0.5,1.7,0.7c0.5,0.2,0.4,0.2,0.5,0.7c0,0.1,0,0.3,0,0.4c0,0.1,0,0.3,0,0.4c0.2,1.2,0.4,2.3,0.6,3.5
			c0.3,1.4,0.5,2.9,0.8,4.3c0.1,0.4,0.3,0.6,0.7,0.6c0.1,0,0.2,0,0.1,0.2c-0.2,0.5-0.4,1.1-0.6,1.6c-0.1,0.3,0.1,0.6,0.5,0.7
			c0.1,0,0.2,0,0.3,0c0,0,0.1,0,0.1,0c0,0,0,0.1-0.1,0.1c-0.4,0.5-0.5,1.1-0.2,1.7c0.2,0.5,0.6,0.9,1.2,1c0.6,0.1,1.2,0,1.6-0.5
			c0.6-0.6,0.7-1.6,0.2-2.3c0,0-0.1,0,0,0c0,0,0.1,0,0.1,0c1.2,0,2.4,0,3.5,0c0,0,0.1-0.1,0.1,0c0,0,0,0-0.1,0.1
			c-0.3,0.3-0.4,0.7-0.3,1.1c0,0.7,0.5,1.4,1.3,1.6c1.1,0.3,2.2-0.5,2.2-1.6c0-0.4-0.1-0.8-0.4-1.2c0,0-0.1-0.1-0.1-0.1
			c0-0.1,0.1,0,0.1,0c0.1,0,0.3,0,0.4,0c0.3,0,0.4-0.2,0.5-0.4c0-0.2-0.1-0.4-0.4-0.5c-0.1,0-0.2,0-0.3,0c-2.2,0-4.3,0-6.5,0
			c-0.9,0-1.7,0-2.6,0c-0.1,0-0.1,0-0.1-0.2c0.1-0.4,0.3-0.8,0.4-1.2c0-0.1,0.1-0.2,0.2-0.2c2.8,0,5.7,0,8.5,0
			c0.4,0,0.6-0.1,0.7-0.5c0.2-0.5,0.4-1.1,0.5-1.6c0.3-1,0.6-2,1-3c0.2-0.7,0.4-1.3,0.6-2c0.1-0.3,0.2-0.5,0.3-0.9
			c0-0.1,0-0.3-0.1-0.4C23.8,10,23.7,10.1,23.4,10.1z M19.2,21.7c0.4,0,0.8,0.3,0.8,0.8c0,0.4-0.3,0.8-0.8,0.8
			c-0.4,0-0.8-0.4-0.8-0.8C18.5,22,18.8,21.7,19.2,21.7z M12.8,21.7c0.4,0,0.8,0.3,0.8,0.8c0,0.4-0.4,0.8-0.8,0.8
			c-0.4,0-0.8-0.4-0.8-0.8C12,22,12.4,21.7,12.8,21.7z"/>
	</g>
</g>
<g>
	<path class="st0" d="M15.6,30.4c-8.2,0-14.8-6.6-14.8-14.8c0-8.2,6.6-14.8,14.8-14.8c8.2,0,14.8,6.6,14.8,14.8
		C30.4,23.8,23.8,30.4,15.6,30.4L15.6,30.4z"/>
	<path class="st0" d="M15.6,30.7c-8.3,0-15.1-6.8-15.1-15.1c0-8.3,6.8-15.1,15.1-15.1c8.3,0,15.1,6.8,15.1,15.1
		C30.7,23.9,23.9,30.7,15.6,30.7z M15.6,1.2c-8,0-14.5,6.5-14.5,14.5c0,8,6.5,14.5,14.5,14.5c8,0,14.5-6.5,14.5-14.5
		C30.1,7.6,23.6,1.2,15.6,1.2z"/>
</g>
</svg>
