<?xml version="1.0" encoding="utf-8"?>
<!-- Generator: Adobe Illustrator 19.2.1, SVG Export Plug-In . SVG Version: 6.00 Build 0)  -->
<svg version="1.1" id="Layer_1" xmlns="http://www.w3.org/2000/svg" xmlns:xlink="http://www.w3.org/1999/xlink" x="0px" y="0px"
	 viewBox="0 0 31.2 31.2" style="enable-background:new 0 0 31.2 31.2;" xml:space="preserve">
<style type="text/css">
	.st0{fill:none;stroke:#4D4D4D;stroke-miterlimit:10;}
	.st1{fill:#4D4D4D;}
</style>
<g>
	<g>
		<path class="st0" d="M15.6,30.4c-8.2,0-14.8-6.6-14.8-14.8S7.4,0.8,15.6,0.8s14.8,6.6,14.8,14.8S23.8,30.4,15.6,30.4L15.6,30.4z"
			/>
		<path class="st0" d="M15.6,30.7c-8.3,0-15.1-6.8-15.1-15.1S7.3,0.5,15.6,0.5s15.1,6.8,15.1,15.1S23.9,30.7,15.6,30.7z M15.6,1.2
			c-8,0-14.5,6.5-14.5,14.5s6.5,14.5,14.5,14.5c8,0,14.5-6.5,14.5-14.5C30.1,7.6,23.6,1.2,15.6,1.2z"/>
	</g>
	<g>
		<g>
			<path class="st1" d="M11.5,11.8H8.9v4.1h2.6v12.2h5V16h3.3l0.5-4.2h-3.8l0.1-2c0,0-0.3-1.5,1.3-1.6h2.4V4.1h-4.1
				c0,0-4.5,0-4.7,4.3L11.5,11.8z"/>
		</g>
	</g>
</g>
</svg>
