<?xml version="1.0" encoding="utf-8"?>
<!-- Generator: Adobe Illustrator 19.2.1, SVG Export Plug-In . SVG Version: 6.00 Build 0)  -->
<svg version="1.1" id="Layer_1" xmlns="http://www.w3.org/2000/svg" xmlns:xlink="http://www.w3.org/1999/xlink" x="0px" y="0px"
	 viewBox="0 0 206 49.6" style="enable-background:new 0 0 206 49.6;" xml:space="preserve">
<style type="text/css">
	.st0{fill:none;stroke:#4D4D4D;stroke-miterlimit:10;}
	.st1{fill:#4D4D4D;}
	.st2{fill:#1A1A1A;}
	.st3{fill:#2985E1;}
	.st4{fill:#297BE1;}
	.st5{fill:#2971E1;}
	.st6{fill:#2967E1;}
	.st7{fill:#295DE1;}
	.st8{fill:#2953E1;}
	.st9{fill:#2949E1;}
	.st10{fill:#293EE1;}
	.st11{fill:#2934E1;}
	.st12{fill:#292AE1;}
	.st13{fill:#FFFFFF;}
</style>
<g>
	<g>
		<path class="st2" d="M48.5,6.4l-0.3-2.1c-0.1-0.7-0.1-1.1-0.1-1.2c0-0.2,0.2-0.4,0.5-0.5l5.3-2.5C54,0.1,54.1,0,54.2,0
			c0.3,0,0.5,0.2,0.6,0.6l8.5,42.5c0.1,0.8,0.3,1.3,0.5,1.7c0.2,0.3,0.6,0.7,1.3,1.1c0.5,0.3,0.7,0.6,0.7,1v1.4
			c0,0.5-0.2,0.8-0.6,0.8H54.7c-0.6,0-0.8-0.3-0.8-0.8v-1.4c0-0.5,0.3-0.9,1-1.2c0.8-0.4,1.2-1,1.2-1.8c0-0.2,0-0.5-0.1-0.7
			l-1.3-6.5h-8.2L45.2,43c-0.1,0.3-0.1,0.5-0.1,0.6c0,0.6,0.5,1.3,1.4,2.1c0.6,0.5,0.9,0.9,0.9,1.3v1.4c0,0.5-0.3,0.8-0.9,0.8h-6.6
			c-0.7,0-1.1-0.3-1.1-0.8v-1.6c0-0.4,0.2-0.8,0.7-1.1c0.9-0.5,1.4-1.4,1.7-2.7L48.5,6.4z M50.7,16.4l-3.3,16.1h6.5L50.7,16.4z"/>
		<path class="st2" d="M79.4,43.1V6c0-1.1-0.4-1.9-1.2-2.4c-0.5-0.4-0.8-0.8-0.8-1.3V0.9c0-0.5,0.3-0.7,0.8-0.7H88
			c0.5,0,0.7,0.2,0.7,0.7v1.4c0,0.5-0.3,0.9-0.8,1.3C87.1,4.2,86.7,5,86.7,6v39.2h2.7c1.6,0,2.8-0.5,3.7-1.5c0.9-1,1.5-2.6,1.9-5
			c0.2-0.9,0.3-1.4,0.4-1.6c0.1-0.1,0.3-0.2,0.5-0.2h1.5c0.6,0,0.8,0.2,0.8,0.7v11.2h-20c-0.7,0-1-0.3-1-0.9v-1.2
			c0-0.5,0.3-0.9,0.9-1.3C79,45,79.4,44.2,79.4,43.1z"/>
		<path class="st2" d="M132.8,37.6c0,3.7-1,6.7-2.9,8.8s-4.4,3.2-7.5,3.2c-3.1,0-5.6-1-7.6-3.1s-2.9-4.8-2.9-8.2V6.1
			c0-1.1-0.4-1.9-1.2-2.4c-0.5-0.4-0.8-0.8-0.8-1.3V1c0-0.5,0.3-0.7,0.8-0.7h9.8c0.5,0,0.7,0.2,0.7,0.7v1.4c0,0.5-0.3,0.9-0.8,1.3
			c-0.8,0.5-1.2,1.3-1.2,2.4v32.6c0,4.3,1.4,6.5,4.3,6.5c3.2,0,4.7-2.5,4.7-7.6V6.1c0-1.1-0.4-1.9-1.2-2.4c-0.5-0.4-0.8-0.8-0.8-1.3
			V1c0-0.5,0.3-0.7,0.8-0.7h7c0.5,0,0.7,0.2,0.7,0.7v1.4c0,0.5-0.3,0.9-0.8,1.3c-0.8,0.5-1.2,1.3-1.2,2.4L132.8,37.6L132.8,37.6z"/>
		<path class="st2" d="M160.6,28.7l4.3-21.8C165,6.5,165,6.2,165,6c0-0.9-0.5-1.6-1.4-2.1c-0.7-0.4-1.1-0.8-1.1-1.3V1
			c0-0.5,0.3-0.8,0.9-0.8h7.4c0.6,0,0.9,0.3,0.9,0.8v1.6c0,0.5-0.3,0.9-0.9,1.2c-1,0.5-1.6,1.5-1.9,2.8l-8.2,42
			c-0.1,0.6-0.4,1-0.9,1h-1.3c-0.5,0-0.8-0.3-0.9-1l-8.3-41.8c-0.3-1.5-1-2.6-2-3.2c-0.5-0.4-0.8-0.8-0.8-1.3V0.9
			c0-0.5,0.3-0.7,0.8-0.7h9.7c0.5,0,0.8,0.3,0.8,0.8v1.6c0,0.4-0.3,0.8-0.8,1.1c-0.7,0.5-1.1,1-1.1,1.8c0,0.3,0,0.6,0.1,1
			L160.6,28.7z"/>
		<path class="st2" d="M206,49h-21.5c-0.5,0-0.8-0.3-0.8-0.8v-1.4c0-0.4,0.3-0.9,1-1.4c0.6-0.5,0.9-1.2,0.9-2.3V6
			c0-1.1-0.4-1.9-1.2-2.4c-0.5-0.4-0.8-0.8-0.8-1.3V0.8c0-0.4,0.3-0.6,0.8-0.6h16.1c0.3,0,0.8,0,1.7-0.1c0.7-0.1,1.2-0.1,1.4-0.1
			c0.7,0,1,0.2,1,0.6v9.2c0,0.5,0,0.8-0.1,0.9c-0.1,0.1-0.4,0.1-0.8,0.1h-1.2c-0.5,0-0.8-0.3-0.8-0.9c-0.2-1.6-0.6-3-1.2-4.2
			c-0.6-1.2-1.8-1.7-3.6-1.7H193v17.7h1.4c0.9,0,1.5-0.2,1.8-0.5c0.3-0.3,0.8-1.4,1.3-3.2c0.2-0.6,0.3-0.9,0.3-1
			c0.1-0.1,0.3-0.1,0.6-0.1h1.4c0.5,0,0.8,0.3,0.8,0.8v11.8c0,0.5-0.3,0.8-0.8,0.8h-1.4c-0.3,0-0.5-0.1-0.7-0.2
			c-0.1-0.2-0.3-0.6-0.5-1.5c-0.4-1.5-0.8-2.4-1.2-2.7c-0.4-0.3-1-0.5-1.8-0.5h-1.3v19.8h4.2c1.6,0,2.7-0.4,3.3-1.1s1.4-2.8,2.3-6.1
			c0.2-0.8,0.6-1.1,1.1-1.1h1.3c0.5,0,0.8,0.3,0.8,0.8L206,49L206,49z"/>
	</g>
	<g>
		<g>
			<rect x="11.5" y="49.3" class="st3" width="13.8" height="0"/>
			<polygon class="st3" points="0,49.3 0,49.2 0,49.2 0,49.2 0,49.2 0,49.3 0,49.3 0,49.3 			"/>
			<rect y="0.4" class="st3" width="0" height="8.7"/>
			<rect x="0" y="0.4" class="st3" width="13.8" height="0"/>
			<polygon class="st3" points="25.3,0.4 25.3,0.4 25.3,0.4 25.3,0.5 25.3,0.5 25.3,0.5 25.3,0.5 25.3,0.4 			"/>
			<rect x="25.3" y="40.6" class="st3" width="0" height="8.7"/>
			<rect x="0" y="49.2" class="st3" width="0" height="0.1"/>
			<polygon class="st3" points="4.5,9.1 4.5,0.5 8.1,0.5 8.1,0.4 13.8,0.4 13.8,0.4 0,0.4 0,9.1 			"/>
			<rect x="25.3" y="0.4" class="st3" width="0" height="0.1"/>
			<polygon class="st3" points="20.8,40.6 20.8,49.2 17.2,49.2 17.2,49.3 11.5,49.3 11.5,49.3 25.3,49.3 25.3,40.6 			"/>
			<polygon class="st3" points="25.3,8.8 25.3,8.8 25.3,40.6 25.3,40.6 25.3,0.5 25.3,0.5 			"/>
			<rect x="4.5" y="0.5" class="st3" width="3.6" height="8.6"/>
			<polygon class="st3" points="25.3,22.7 25.3,22.7 25.3,27.5 25.2,27.5 25.2,33.4 20.8,33.4 20.8,40.6 25.3,40.6 25.3,8.8 
				25.3,8.8 			"/>
			<polygon class="st3" points="11.3,0.4 13.8,0.4 13.8,0.4 8.1,0.4 8.1,0.5 11.3,0.5 			"/>
			<rect x="20.8" y="27.5" class="st3" width="4.4" height="5.9"/>
			<rect x="8.1" y="0.5" class="st3" width="3.2" height="8.6"/>
			<rect x="25.2" y="22.7" class="st3" width="0.1" height="4.8"/>
			<rect x="11.3" y="0.4" class="st3" width="2.5" height="0"/>
			<rect x="20.8" y="22.7" class="st3" width="4.4" height="4.8"/>
			<rect x="11.3" y="0.5" class="st3" width="2.5" height="8.6"/>
			<rect x="13.8" y="0.4" class="st3" width="11.5" height="0"/>
			<polygon class="st3" points="13.8,0.4 25.2,0.4 25.2,0.4 25.3,0.4 25.3,0.4 25.3,0.4 25.3,0.5 25.3,0.5 25.3,0.4 13.8,0.4 			"/>
			<rect x="25.3" y="8.8" class="st3" width="0" height="13.9"/>
			<polygon class="st3" points="15.8,0.4 15.8,0.4 25.2,0.4 25.2,0.4 13.8,0.4 13.8,0.4 			"/>
			<rect x="25.3" y="0.4" class="st3" width="0" height="0"/>
			<polygon class="st3" points="25.3,8.8 25.3,10.6 25.3,10.6 25.3,18.7 25.2,18.7 25.2,22.7 25.3,22.7 25.3,8.8 			"/>
			<rect x="13.8" y="0.4" class="st3" width="2" height="0"/>
			<rect x="20.8" y="18.7" class="st3" width="4.4" height="4"/>
			<rect x="13.8" y="0.5" class="st3" width="2" height="8.6"/>
			<rect x="25.2" y="0.4" class="st3" width="0" height="0"/>
			<rect x="15.8" y="0.4" class="st3" width="9.5" height="0"/>
			<polygon class="st3" points="25.2,0.5 25.2,0.5 25.2,0.5 25.3,0.5 25.3,0.4 25.2,0.4 			"/>
			<polygon class="st3" points="25.2,15.5 25.2,15.5 25.2,18.7 25.3,18.7 25.3,10.6 25.2,10.6 			"/>
			<polygon class="st3" points="17.4,0.5 17.4,0.5 25.2,0.5 25.2,0.4 15.8,0.4 15.8,0.5 			"/>
			<rect x="20.8" y="15.5" class="st3" width="4.4" height="3.3"/>
			<rect x="15.8" y="0.5" class="st3" width="1.7" height="8.6"/>
			<rect x="25.2" y="0.5" class="st3" width="0" height="0"/>
			<polygon class="st3" points="25.2,12.8 25.2,12.8 25.2,15.5 25.2,15.5 25.2,10.6 25.2,10.6 			"/>
			<polygon class="st3" points="17.4,0.5 20,0.5 20,0.5 21,0.5 21,0.5 25.2,0.5 25.2,0.5 17.4,0.5 			"/>
			<rect x="20.8" y="12.8" class="st3" width="4.4" height="2.7"/>
			<polygon class="st3" points="18.8,9.1 18.8,0.5 20,0.5 20,0.5 17.4,0.5 17.4,9.1 			"/>
			<rect x="25.2" y="10.6" class="st3" width="0" height="2.2"/>
			<rect x="20.8" y="10.6" class="st3" width="4.4" height="2.2"/>
			<rect x="18.8" y="0.5" class="st3" width="1.1" height="8.6"/>
			<rect x="25.3" y="8.8" class="st3" width="0" height="1.8"/>
			<rect x="25.2" y="8.8" class="st3" width="0" height="1.8"/>
			<rect x="25.2" y="8.8" class="st3" width="0" height="1.8"/>
			<rect x="20" y="0.5" class="st3" width="1" height="0"/>
			<rect x="20" y="0.5" class="st3" width="1" height="0"/>
			<rect x="25.2" y="8.8" class="st3" width="0" height="1.8"/>
			<polygon class="st3" points="20.8,9.1 20.8,10.6 25.2,10.6 25.2,8.8 21,8.8 21,0.5 20,0.5 20,9.1 			"/>
			<rect x="25.3" y="0.5" class="st3" width="0" height="0"/>
			<rect x="25.3" y="0.5" class="st3" width="0" height="0"/>
			<rect x="25.3" y="0.5" class="st3" width="0" height="8.3"/>
			<rect x="25.3" y="0.5" class="st3" width="0" height="8.3"/>
			<rect x="25.3" y="0.5" class="st3" width="0" height="0"/>
			<rect x="25.3" y="0.5" class="st3" width="0" height="8.3"/>
			<polygon class="st3" points="25.3,0.5 25.3,0.5 25.3,0.5 25.3,0.5 25.3,0.5 25.3,0.5 			"/>
			<rect x="25.3" y="0.5" class="st3" width="0" height="8.3"/>
			<rect x="25.2" y="0.5" class="st3" width="0" height="0"/>
			<rect x="25.2" y="0.5" class="st3" width="0" height="0"/>
			<rect x="21" y="0.5" class="st3" width="4.2" height="0"/>
			<rect x="25.3" y="0.5" class="st3" width="0" height="0"/>
			<rect x="25.3" y="0.5" class="st3" width="0" height="8.3"/>
			<rect x="25.2" y="0.5" class="st3" width="0" height="0"/>
			<rect x="25.2" y="0.5" class="st3" width="0" height="8.3"/>
			<rect x="25.2" y="0.5" class="st3" width="0" height="0"/>
			<polygon class="st3" points="25.2,0.5 25.2,0.5 25.2,8.8 25.2,8.8 25.2,0.5 25.2,0.5 			"/>
			<rect x="21" y="0.5" class="st3" width="4.2" height="0"/>
			<rect x="21" y="0.5" class="st3" width="4.2" height="0"/>
			<rect x="25.2" y="0.5" class="st3" width="0" height="8.3"/>
			<rect x="21" y="0.5" class="st3" width="4.2" height="8.3"/>
			<polygon class="st4" points="0,40.9 0,40.9 0,9.1 0,9.1 0,49.2 0,49.2 			"/>
			<rect x="17.2" y="40.6" class="st4" width="3.6" height="8.6"/>
			<polygon class="st4" points="0,27 0,27 0,22.2 0.1,22.2 0.1,16.3 4.5,16.3 4.5,9.1 0,9.1 0,40.9 0,40.9 			"/>
			<rect x="17.2" y="33.4" class="st4" width="3.6" height="7.2"/>
			<rect x="4.5" y="9.1" class="st4" width="3.6" height="7.2"/>
			<rect x="17.2" y="27.5" class="st4" width="3.6" height="5.9"/>
			<rect x="8.1" y="9.1" class="st4" width="3.2" height="7.2"/>
			<rect x="11.3" y="9.1" class="st4" width="2.5" height="7.2"/>
			<rect x="17.2" y="22.7" class="st4" width="3.6" height="4.8"/>
			<rect x="13.8" y="9.1" class="st4" width="2" height="7.2"/>
			<rect x="17.2" y="18.7" class="st4" width="3.6" height="4"/>
			<polygon class="st4" points="17.4,9.1 15.8,9.1 15.8,16.3 17.2,16.3 17.2,18.7 20.8,18.7 20.8,15.5 17.4,15.5 			"/>
			<polygon class="st4" points="18.8,12.8 18.8,9.1 17.4,9.1 17.4,15.5 20.8,15.5 20.8,12.8 			"/>
			<polygon class="st4" points="20.8,12.8 20.8,10.6 20,10.6 20,9.1 18.8,9.1 18.8,12.8 			"/>
			<rect x="20" y="9.1" class="st4" width="0.8" height="1.5"/>
			<polygon class="st5" points="14,49.3 11.5,49.3 11.5,49.3 17.2,49.3 17.2,49.2 14,49.2 			"/>
			<rect x="0.1" y="16.3" class="st5" width="4.4" height="5.9"/>
			<rect x="14" y="40.6" class="st5" width="3.2" height="8.6"/>
			<rect x="14" y="33.4" class="st5" width="3.2" height="7.2"/>
			<rect x="4.5" y="16.3" class="st5" width="3.6" height="5.9"/>
			<rect x="8.1" y="16.3" class="st5" width="3.2" height="5.9"/>
			<rect x="14" y="27.5" class="st5" width="3.2" height="5.9"/>
			<rect x="11.3" y="16.3" class="st5" width="2.5" height="5.9"/>
			<rect x="14" y="22.7" class="st5" width="3.2" height="4.8"/>
			<polygon class="st5" points="14,22.2 14,22.7 17.2,22.7 17.2,18.7 15.8,18.7 15.8,16.3 13.8,16.3 13.8,22.2 			"/>
			<rect x="15.8" y="16.3" class="st5" width="1.4" height="2.4"/>
			<rect x="0" y="22.2" class="st6" width="0.1" height="4.8"/>
			<rect x="11.5" y="49.2" class="st6" width="2.5" height="0"/>
			<rect x="0.1" y="22.2" class="st6" width="4.4" height="4.8"/>
			<rect x="11.5" y="40.6" class="st6" width="2.5" height="8.6"/>
			<rect x="4.5" y="22.2" class="st6" width="3.6" height="4.8"/>
			<rect x="11.5" y="33.4" class="st6" width="2.5" height="7.2"/>
			<rect x="11.5" y="27.5" class="st6" width="2.5" height="5.9"/>
			<rect x="8.1" y="22.2" class="st6" width="3.2" height="4.8"/>
			<polygon class="st6" points="13.8,22.7 13.8,22.2 11.3,22.2 11.3,27 11.5,27 11.5,27.5 14,27.5 14,22.7 			"/>
			<rect x="13.8" y="22.2" class="st6" width="0.2" height="0.5"/>
			<rect x="0" y="49.3" class="st7" width="11.5" height="0"/>
			<polygon class="st7" points="0.1,49.3 0.1,49.3 0.1,49.3 0,49.3 0,49.2 0,49.2 0,49.3 11.5,49.3 11.5,49.3 0.1,49.3 			"/>
			<rect x="0" y="27" class="st7" width="0" height="13.9"/>
			<polygon class="st7" points="9.6,49.3 9.6,49.3 0.1,49.3 0.1,49.3 11.5,49.3 11.5,49.3 			"/>
			<rect x="0" y="49.2" class="st7" width="0" height="0"/>
			<polygon class="st7" points="0,40.9 0,39.1 0.1,39.1 0.1,31 0.1,31 0.1,27 0,27 0,40.9 			"/>
			<rect x="9.6" y="49.2" class="st7" width="2" height="0"/>
			<rect x="9.6" y="40.6" class="st7" width="2" height="8.6"/>
			<rect x="0.1" y="27" class="st7" width="4.4" height="4"/>
			<rect x="4.5" y="27" class="st7" width="3.6" height="4"/>
			<rect x="9.6" y="33.4" class="st7" width="2" height="7.2"/>
			<polygon class="st7" points="11.3,27.5 11.3,27 8.1,27 8.1,31 9.6,31 9.6,33.4 11.5,33.4 11.5,27.5 			"/>
			<rect x="11.3" y="27" class="st7" width="0.2" height="0.5"/>
			<rect x="0.1" y="49.3" class="st8" width="0" height="0"/>
			<rect x="0.1" y="49.3" class="st8" width="9.5" height="0"/>
			<polygon class="st8" points="0.1,49.2 0.1,49.2 0.1,49.2 0.1,49.2 0.1,49.3 0.1,49.3 			"/>
			<polygon class="st8" points="0.1,34.2 0.1,34.2 0.1,31 0.1,31 0.1,39.1 0.1,39.1 			"/>
			<polygon class="st8" points="7.9,49.2 7.9,49.2 0.1,49.2 0.1,49.3 9.6,49.3 9.6,49.2 			"/>
			<rect x="7.9" y="40.6" class="st8" width="1.7" height="8.6"/>
			<rect x="0.1" y="31" class="st8" width="4.4" height="3.3"/>
			<polygon class="st8" points="4.5,34.2 7.9,34.2 7.9,40.6 9.6,40.6 9.6,33.4 8.1,33.4 8.1,31 4.5,31 			"/>
			<rect x="8.1" y="31" class="st8" width="1.4" height="2.4"/>
			<rect x="0.1" y="49.2" class="st9" width="0" height="0"/>
			<polygon class="st9" points="0.1,36.9 0.1,36.9 0.1,34.2 0.1,34.2 0.1,39.1 0.1,39.1 			"/>
			<polygon class="st9" points="5.3,49.2 4.3,49.2 4.3,49.2 0.1,49.2 0.1,49.2 7.9,49.2 7.9,49.2 5.3,49.2 			"/>
			<rect x="0.1" y="34.2" class="st9" width="4.4" height="2.7"/>
			<polygon class="st9" points="6.5,40.6 6.5,49.2 5.3,49.2 5.3,49.2 7.9,49.2 7.9,40.6 			"/>
			<polygon class="st9" points="4.5,34.2 4.5,36.9 6.5,36.9 6.5,40.6 7.9,40.6 7.9,34.2 			"/>
			<rect x="0.1" y="36.9" class="st10" width="0" height="2.2"/>
			<rect x="0.1" y="36.9" class="st10" width="4.4" height="2.2"/>
			<rect x="5.3" y="40.6" class="st10" width="1.1" height="8.6"/>
			<polygon class="st10" points="4.5,36.9 4.5,39.1 5.3,39.1 5.3,40.6 6.5,40.6 6.5,36.9 			"/>
			<rect x="0" y="39.1" class="st11" width="0" height="1.8"/>
			<rect x="0.1" y="39.1" class="st11" width="0" height="1.8"/>
			<rect x="0.1" y="39.1" class="st11" width="0" height="1.8"/>
			<rect x="4.3" y="49.2" class="st11" width="1" height="0"/>
			<rect x="4.3" y="49.2" class="st11" width="1" height="0"/>
			<rect x="0.1" y="39.1" class="st11" width="0" height="1.8"/>
			<polygon class="st11" points="4.5,40.6 4.5,39.1 0.1,39.1 0.1,40.9 4.3,40.9 4.3,49.2 5.3,49.2 5.3,40.6 			"/>
			<rect x="4.5" y="39.1" class="st11" width="0.8" height="1.5"/>
			<rect x="0" y="49.2" class="st12" width="0" height="0"/>
			<rect x="0" y="49.2" class="st12" width="0" height="0"/>
			<rect x="0" y="40.9" class="st12" width="0" height="8.3"/>
			<rect x="0" y="40.9" class="st12" width="0" height="8.3"/>
			<rect x="0" y="49.2" class="st12" width="0" height="0"/>
			<rect x="0" y="40.9" class="st12" width="0" height="8.3"/>
			<polygon class="st12" points="0.1,49.2 0,49.2 0,49.2 0,49.2 0,49.2 0.1,49.2 			"/>
			<rect x="0" y="40.9" class="st12" width="0" height="8.3"/>
			<rect x="0.1" y="49.2" class="st12" width="0" height="0"/>
			<rect x="0.1" y="49.2" class="st12" width="0" height="0"/>
			<rect x="0.1" y="49.2" class="st12" width="4.2" height="0"/>
			<rect x="0" y="49.2" class="st12" width="0" height="0"/>
			<rect x="0" y="40.9" class="st12" width="0" height="8.3"/>
			<rect x="0.1" y="49.2" class="st12" width="0" height="0"/>
			<rect x="0.1" y="40.9" class="st12" width="0" height="8.3"/>
			<rect x="0.1" y="49.2" class="st12" width="0" height="0"/>
			<polygon class="st12" points="0.1,49.2 0.1,49.2 0.1,40.9 0.1,40.9 0.1,49.2 0.1,49.2 			"/>
			<rect x="0.1" y="49.2" class="st12" width="4.2" height="0"/>
			<rect x="0.1" y="49.2" class="st12" width="4.2" height="0"/>
			<rect x="0.1" y="40.9" class="st12" width="0" height="8.3"/>
			<rect x="0.1" y="40.9" class="st12" width="4.2" height="8.3"/>
			<rect x="0" y="0.4" class="st3" width="13.8" height="0"/>
			<polygon class="st3" points="25.3,0.4 25.3,0.5 25.3,0.5 25.3,0.5 25.3,0.5 25.3,0.4 25.3,0.4 25.3,0.4 			"/>
			<rect x="25.3" y="40.6" class="st3" width="0" height="8.7"/>
			<rect x="0" y="0.4" class="st3" width="0" height="8.7"/>
			<rect x="25.3" y="0.4" class="st3" width="0" height="0.1"/>
			<polygon class="st3" points="4.5,9.1 4.5,0.5 8.1,0.5 8.1,0.4 13.8,0.4 13.8,0.4 0,0.4 0,9.1 			"/>
			<polygon class="st3" points="0,40.9 0,40.9 0,9.1 0,9.1 0,49.2 0,49.2 			"/>
			<rect x="0" y="22.2" class="st3" width="0.1" height="4.8"/>
			<rect x="0" y="27" class="st3" width="0" height="13.9"/>
			<polygon class="st3" points="0,40.9 0,39.1 0.1,39.1 0.1,31 0.1,31 0.1,27 0,27 0,40.9 			"/>
			<polygon class="st3" points="0.1,34.2 0.1,34.2 0.1,31 0.1,31 0.1,39.1 0.1,39.1 			"/>
			<polygon class="st3" points="0.1,36.9 0.1,36.9 0.1,34.2 0.1,34.2 0.1,39.1 0.1,39.1 			"/>
			<rect x="0.1" y="36.9" class="st3" width="0" height="2.2"/>
			<rect x="0" y="39.1" class="st3" width="0" height="1.8"/>
			<rect x="0.1" y="39.1" class="st3" width="0" height="1.8"/>
			<rect x="0.1" y="39.1" class="st3" width="0" height="1.8"/>
			<rect x="0.1" y="39.1" class="st3" width="0" height="1.8"/>
			<rect x="0" y="40.9" class="st3" width="0" height="8.3"/>
			<rect x="0" y="40.9" class="st3" width="0" height="8.3"/>
			<rect x="0" y="40.9" class="st3" width="0" height="8.3"/>
			<rect x="0" y="40.9" class="st3" width="0" height="8.3"/>
			<rect x="0" y="40.9" class="st3" width="0" height="8.3"/>
			<rect x="0.1" y="40.9" class="st3" width="0" height="8.3"/>
			<polygon class="st3" points="0.1,49.2 0.1,49.2 0.1,40.9 0.1,40.9 0.1,49.2 0.1,49.2 			"/>
			<rect x="0.1" y="40.9" class="st3" width="0" height="8.3"/>
			<rect x="4.5" y="0.5" class="st4" width="3.6" height="8.6"/>
			<polygon class="st5" points="11.3,0.4 13.8,0.4 13.8,0.4 8.1,0.4 8.1,0.5 11.3,0.5 			"/>
			<rect x="20.8" y="27.5" class="st5" width="4.4" height="5.9"/>
			<rect x="8.1" y="0.5" class="st5" width="3.2" height="8.6"/>
			<rect x="8.1" y="9.1" class="st5" width="3.2" height="7.2"/>
			<rect x="17.2" y="27.5" class="st5" width="3.6" height="5.9"/>
			<rect x="25.2" y="22.7" class="st6" width="0.1" height="4.8"/>
			<rect x="11.3" y="0.4" class="st6" width="2.5" height="0"/>
			<rect x="20.8" y="22.7" class="st6" width="4.4" height="4.8"/>
			<rect x="11.3" y="0.5" class="st6" width="2.5" height="8.6"/>
			<rect x="17.2" y="22.7" class="st6" width="3.6" height="4.8"/>
			<rect x="11.3" y="9.1" class="st6" width="2.5" height="7.2"/>
			<rect x="11.3" y="16.3" class="st6" width="2.5" height="5.9"/>
			<rect x="14" y="22.7" class="st6" width="3.2" height="4.8"/>
			<rect x="13.8" y="0.4" class="st7" width="11.5" height="0"/>
			<polygon class="st7" points="25.2,0.4 25.3,0.4 25.3,0.4 25.3,0.4 25.3,0.5 25.3,0.5 25.3,0.4 13.8,0.4 13.8,0.4 25.2,0.4 			"/>
			<rect x="25.3" y="8.8" class="st7" width="0" height="13.9"/>
			<polygon class="st7" points="15.8,0.4 15.8,0.4 25.2,0.4 25.2,0.4 13.8,0.4 13.8,0.4 			"/>
			<rect x="25.3" y="0.4" class="st7" width="0" height="0"/>
			<polygon class="st7" points="25.3,8.8 25.3,10.6 25.3,10.6 25.3,18.7 25.2,18.7 25.2,22.7 25.3,22.7 25.3,8.8 			"/>
			<rect x="13.8" y="0.4" class="st7" width="2" height="0"/>
			<rect x="13.8" y="0.5" class="st7" width="2" height="8.6"/>
			<rect x="20.8" y="18.7" class="st7" width="4.4" height="4"/>
			<rect x="17.2" y="18.7" class="st7" width="3.6" height="4"/>
			<rect x="13.8" y="9.1" class="st7" width="2" height="7.2"/>
			<polygon class="st7" points="14,22.2 14,22.7 17.2,22.7 17.2,18.7 15.8,18.7 15.8,16.3 13.8,16.3 13.8,22.2 			"/>
			<rect x="13.8" y="22.2" class="st7" width="0.2" height="0.5"/>
			<rect x="25.2" y="0.4" class="st8" width="0" height="0"/>
			<rect x="15.8" y="0.4" class="st8" width="9.5" height="0"/>
			<polygon class="st8" points="25.2,0.5 25.2,0.5 25.2,0.5 25.3,0.5 25.3,0.4 25.2,0.4 			"/>
			<polygon class="st8" points="25.2,15.5 25.2,15.5 25.2,18.7 25.3,18.7 25.3,10.6 25.2,10.6 			"/>
			<polygon class="st8" points="17.4,0.5 17.4,0.5 25.2,0.5 25.2,0.4 15.8,0.4 15.8,0.5 			"/>
			<rect x="15.8" y="0.5" class="st8" width="1.7" height="8.6"/>
			<rect x="20.8" y="15.5" class="st8" width="4.4" height="3.3"/>
			<polygon class="st8" points="20.8,15.5 17.4,15.5 17.4,9.1 15.8,9.1 15.8,16.3 17.2,16.3 17.2,18.7 20.8,18.7 			"/>
			<rect x="15.8" y="16.3" class="st8" width="1.4" height="2.4"/>
			<rect x="25.2" y="0.5" class="st9" width="0" height="0"/>
			<polygon class="st9" points="25.2,12.8 25.2,12.8 25.2,15.5 25.2,15.5 25.2,10.6 25.2,10.6 			"/>
			<polygon class="st9" points="20,0.5 21,0.5 21,0.5 25.2,0.5 25.2,0.5 17.4,0.5 17.4,0.5 20,0.5 			"/>
			<rect x="20.8" y="12.8" class="st9" width="4.4" height="2.7"/>
			<polygon class="st9" points="18.8,9.1 18.8,0.5 20,0.5 20,0.5 17.4,0.5 17.4,9.1 			"/>
			<polygon class="st9" points="20.8,15.5 20.8,12.8 18.8,12.8 18.8,9.1 17.4,9.1 17.4,15.5 			"/>
			<rect x="25.2" y="10.6" class="st10" width="0" height="2.2"/>
			<rect x="20.8" y="10.6" class="st10" width="4.4" height="2.2"/>
			<rect x="18.8" y="0.5" class="st10" width="1.1" height="8.6"/>
			<polygon class="st10" points="20.8,12.8 20.8,10.6 20,10.6 20,9.1 18.8,9.1 18.8,12.8 			"/>
			<rect x="25.3" y="8.8" class="st11" width="0" height="1.8"/>
			<rect x="25.2" y="8.8" class="st11" width="0" height="1.8"/>
			<rect x="25.2" y="8.8" class="st11" width="0" height="1.8"/>
			<rect x="20" y="0.5" class="st11" width="1" height="0"/>
			<rect x="20" y="0.5" class="st11" width="1" height="0"/>
			<rect x="25.2" y="8.8" class="st11" width="0" height="1.8"/>
			<polygon class="st11" points="20.8,9.1 20.8,10.6 25.2,10.6 25.2,8.8 21,8.8 21,0.5 20,0.5 20,9.1 			"/>
			<rect x="20" y="9.1" class="st11" width="0.8" height="1.5"/>
			<rect x="25.3" y="0.5" class="st12" width="0" height="0"/>
			<rect x="25.3" y="0.5" class="st12" width="0" height="0"/>
			<rect x="25.3" y="0.5" class="st12" width="0" height="8.3"/>
			<rect x="25.3" y="0.5" class="st12" width="0" height="8.3"/>
			<rect x="25.3" y="0.5" class="st12" width="0" height="0"/>
			<rect x="25.3" y="0.5" class="st12" width="0" height="8.3"/>
			<polygon class="st12" points="25.3,0.5 25.3,0.5 25.3,0.5 25.3,0.5 25.3,0.5 25.3,0.5 			"/>
			<rect x="25.3" y="0.5" class="st12" width="0" height="8.3"/>
			<rect x="25.2" y="0.5" class="st12" width="0" height="0"/>
			<rect x="25.2" y="0.5" class="st12" width="0" height="0"/>
			<rect x="21" y="0.5" class="st12" width="4.2" height="0"/>
			<rect x="25.3" y="0.5" class="st12" width="0" height="0"/>
			<rect x="25.3" y="0.5" class="st12" width="0" height="8.3"/>
			<rect x="25.2" y="0.5" class="st12" width="0" height="0"/>
			<rect x="25.2" y="0.5" class="st12" width="0" height="8.3"/>
			<rect x="25.2" y="0.5" class="st12" width="0" height="0"/>
			<polygon class="st12" points="25.2,0.5 25.2,0.5 25.2,8.8 25.2,8.8 25.2,0.5 25.2,0.5 			"/>
			<rect x="21" y="0.5" class="st12" width="4.2" height="0"/>
			<rect x="21" y="0.5" class="st12" width="4.2" height="0"/>
			<rect x="25.2" y="0.5" class="st12" width="0" height="8.3"/>
			<rect x="21" y="0.5" class="st12" width="4.2" height="8.3"/>
		</g>
	</g>
</g>
</svg>
