<svg id="Layer_1" data-name="Layer 1" xmlns="http://www.w3.org/2000/svg" viewBox="0 0 31.21 31.21"><defs><style>.cls-1{fill:none;stroke:#4d4d4d;stroke-miterlimit:10;}.cls-2{fill:#4d4d4d;}</style></defs><title>correo</title><path class="cls-1" d="M15.61,30.39A14.78,14.78,0,1,1,30.39,15.61,14.8,14.8,0,0,1,15.61,30.39h0Z"/><path class="cls-1" d="M15.61,30.71A15.11,15.11,0,1,1,30.71,15.61,15.12,15.12,0,0,1,15.61,30.71Zm0-29.56A14.46,14.46,0,1,0,30.07,15.61,14.47,14.47,0,0,0,15.61,1.15Z"/><path class="cls-2" d="M25.08,11.87c-2.53,1.48-5.07,2.95-7.59,4.43a3.27,3.27,0,0,1-1.61.49,3.26,3.26,0,0,1-1.6-.49L6.73,11.87a1.78,1.78,0,0,1-.8-0.43v1.79c0,2.83,0,5.67,0,8.5,0,1.13.72,1.64,2,1.64h16c1.3,0,2-.51,2-1.64,0-2.83.09-5.67,0.09-8.5V11.44A2.05,2.05,0,0,1,25.08,11.87Z"/><path class="cls-2" d="M15.87,14.42a0.6,0.6,0,0,0,.33,0c3.22-1.85,6.42-3.73,9.67-5.63A1.83,1.83,0,0,0,24,7.64c-2.65,0-5,0-8,0V7.38h0V7.65c-3,0-5.45,0-8.1,0A1.81,1.81,0,0,0,6,8.74c3.25,1.9,6.41,3.78,9.63,5.63A0.46,0.46,0,0,0,15.87,14.42Z"/></svg>