<?xml version="1.0" encoding="UTF-8" standalone="no"?>
<!-- Generator: Adobe Illustrator 19.2.1, SVG Export Plug-In . SVG Version: 6.00 Build 0)  -->

<svg
   xmlns:dc="http://purl.org/dc/elements/1.1/"
   xmlns:cc="http://creativecommons.org/ns#"
   xmlns:rdf="http://www.w3.org/1999/02/22-rdf-syntax-ns#"
   xmlns:svg="http://www.w3.org/2000/svg"
   xmlns="http://www.w3.org/2000/svg"
   xmlns:sodipodi="http://sodipodi.sourceforge.net/DTD/sodipodi-0.dtd"
   xmlns:inkscape="http://www.inkscape.org/namespaces/inkscape"
   version="1.1"
   id="Layer_1"
   x="0px"
   y="0px"
   viewBox="0 0 31.2 31.2"
   style="enable-background:new 0 0 31.2 31.2;"
   xml:space="preserve"
   sodipodi:docname="ubicacion.svg"
   inkscape:version="0.92.1 r15371"><metadata
     id="metadata19"><rdf:RDF><cc:Work
         rdf:about=""><dc:format>image/svg+xml</dc:format><dc:type
           rdf:resource="http://purl.org/dc/dcmitype/StillImage" /></cc:Work></rdf:RDF></metadata><defs
     id="defs17" /><sodipodi:namedview
     pagecolor="#ffffff"
     bordercolor="#666666"
     borderopacity="1"
     objecttolerance="10"
     gridtolerance="10"
     guidetolerance="10"
     inkscape:pageopacity="0"
     inkscape:pageshadow="2"
     inkscape:window-width="1366"
     inkscape:window-height="731"
     id="namedview15"
     showgrid="false"
     inkscape:zoom="7.5641024"
     inkscape:cx="15.6"
     inkscape:cy="15.6"
     inkscape:window-x="0"
     inkscape:window-y="0"
     inkscape:window-maximized="1"
     inkscape:current-layer="Layer_1" /><style
     type="text/css"
     id="style2">
	.st0{fill:none;stroke:#4D4D4D;stroke-miterlimit:10;}
	.st1{fill:#4D4D4D;}
	.st2{fill:#1A1A1A;}
	.st3{fill:#2985E1;}
	.st4{fill:#297BE1;}
	.st5{fill:#2971E1;}
	.st6{fill:#2967E1;}
	.st7{fill:#295DE1;}
	.st8{fill:#2953E1;}
	.st9{fill:#2949E1;}
	.st10{fill:#293EE1;}
	.st11{fill:#2934E1;}
	.st12{fill:#292AE1;}
	.st13{fill:#FFFFFF;}
</style><g
     id="g29"><g
       id="g12"><g
         id="g8"><path
           inkscape:connector-curvature="0"
           id="path4"
           d="M 15.6,30.4 C 9.7812824,30.48599 4.1553227,26.759518 1.959375,21.371875 -0.38284622,15.970855 0.89972472,9.2400299 5.125,5.125 9.2819835,0.85416989 16.109749,-0.40488767 21.537464,2.0303718 26.840006,4.2697023 30.48311,9.8432303 30.4,15.6 30.48599,21.418718 26.759518,27.044677 21.371875,29.240625 19.551472,30.009801 17.575636,30.401893 15.6,30.4 Z"
           style="fill:none;stroke:#4d4d4d;stroke-miterlimit:10" /><path
           inkscape:connector-curvature="0"
           id="path6"
           d="M 15.6,30.7 C 9.4707871,30.782096 3.606177,26.683873 1.4855068,20.948782 -0.65493864,15.541911 0.77512055,8.9894574 4.9375,4.9375 8.9894574,0.77512055 15.541911,-0.65493864 20.948782,1.4855068 26.683873,3.606177 30.782096,9.4707871 30.7,15.6 30.782096,21.729213 26.683873,27.593823 20.948782,29.714493 19.246061,30.366765 17.423242,30.701366 15.6,30.7 Z m 0,-29.5 C 9.4772156,1.1128501 3.6187589,5.3679652 1.8066131,11.221414 c -1.86027938,5.510922 0.018386,12.026689 4.5734162,15.664865 4.5799567,3.905633 11.6406887,4.402304 16.7351377,1.212616 4.955297,-2.917856 7.760002,-8.96318 6.817566,-14.628323 C 29.123366,7.6085916 24.337834,2.5838301 18.519922,1.4908203 17.559601,1.2964487 16.579728,1.1998755 15.6,1.2 Z"
           style="fill:none;stroke:#4d4d4d;stroke-miterlimit:10" /></g><path
         inkscape:connector-curvature="0"
         id="path10"
         d="M 15.6,5.6 C 11.404852,5.5464777 8.0534002,9.9586959 8.9265625,13.99375 9.2342576,15.79268 10.628828,17.121437 11.400524,18.725917 12.806468,21.199696 14.267394,23.641652 15.7,26.1 17.549723,22.979326 19.34961,19.828425 21.188892,16.702637 21.867238,15.78735 22.421421,14.768193 22.4375,13.6 22.955598,9.6786127 19.624706,5.5868344 15.6,5.6 Z m 0,10.8 c -2.505965,0.100704 -4.107428,-3.112388 -2.662109,-5.108789 1.078232,-1.7730076 3.90693,-2.014758 5.141943,-0.280957 1.612702,1.859102 0.353866,5.198773 -2.147266,5.372461 z"
         style="fill:#4d4d4d" /></g></g></svg>