<?xml version="1.0" encoding="utf-8"?>
<!-- Generator: Adobe Illustrator 19.2.1, SVG Export Plug-In . SVG Version: 6.00 Build 0)  -->
<svg version="1.1" id="Layer_1" xmlns="http://www.w3.org/2000/svg" xmlns:xlink="http://www.w3.org/1999/xlink" x="0px" y="0px"
	 viewBox="0 0 31.2 31.2" style="enable-background:new 0 0 31.2 31.2;" xml:space="preserve">
<style type="text/css">
	.st0{fill:none;stroke:#4D4D4D;stroke-miterlimit:10;}
	.st1{fill:#4D4D4D;}
	.st2{fill:#1A1A1A;}
	.st3{fill:#2985E1;}
	.st4{fill:#297BE1;}
	.st5{fill:#2971E1;}
	.st6{fill:#2967E1;}
	.st7{fill:#295DE1;}
	.st8{fill:#2953E1;}
	.st9{fill:#2949E1;}
	.st10{fill:#293EE1;}
	.st11{fill:#2934E1;}
	.st12{fill:#292AE1;}
	.st13{fill:#FFFFFF;}
</style>
<g>
	<g>
		<g>
			<path class="st1" d="M20.4,23.8c-3,1.7-6.1,1.7-9.2,0.1c-0.1,0-0.1-0.1-0.2-0.1c-0.4-0.3-0.7-0.3-1.1-0.1C8.9,24,8,24.3,7.1,24.6
				c-0.1,0-0.2,0.1-0.2,0c-0.1-0.1,0-0.1,0-0.2c0.3-1,0.7-2,1-3.1c0-0.1,0-0.2,0-0.3c-1.1-1.6-1.6-3.3-1.7-5.3c-0.1-4,2.5-8,6.6-9.2
				c3.8-1.2,7.2-0.3,9.9,2.6c1.3,1.4,2,3,2.4,4.8c0.1,0.5,0.1,1,0.1,1.5C25.1,19.1,23.6,22,20.4,23.8z"/>
			<path class="st13" d="M18.2,20.3c-0.3,0-0.7-0.1-1-0.2c-1.3-0.5-2.5-1-3.5-1.9c-1-1-1.8-2.1-2.5-3.3c-0.4-0.7-0.5-1.5-0.3-2.3
				c0.1-0.5,0.4-0.9,0.8-1.3c0.2-0.2,0.5-0.4,0.8-0.3c0.2,0,0.3,0,0.5,0c0.1,0,0.2,0.1,0.3,0.2c0.3,0.7,0.6,1.4,0.8,2.1
				c0.1,0.2,0,0.3-0.1,0.4c-0.1,0.3-0.4,0.5-0.6,0.7c-0.2,0.3-0.3,0.3-0.1,0.7c0.7,1.3,1.7,2.2,3,2.8c0.4,0.2,0.4,0.2,0.7-0.1
				c0.2-0.3,0.5-0.5,0.7-0.8c0.2-0.2,0.3-0.2,0.5-0.1c0.2,0.1,0.4,0.2,0.6,0.3c0.5,0.2,0.9,0.5,1.4,0.7c0.2,0.1,0.2,0.2,0.2,0.4
				c0,1.2-0.9,1.8-2,2C18.4,20.3,18.3,20.3,18.2,20.3z"/>
		</g>
	</g>
	<g>
		<path class="st0" d="M15.6,30.4c-8.2,0-14.8-6.6-14.8-14.8c0-8.2,6.6-14.8,14.8-14.8c8.2,0,14.8,6.6,14.8,14.8
			C30.4,23.8,23.8,30.4,15.6,30.4L15.6,30.4z"/>
		<path class="st0" d="M15.6,30.7c-8.3,0-15.1-6.8-15.1-15.1c0-8.3,6.8-15.1,15.1-15.1c8.3,0,15.1,6.8,15.1,15.1
			C30.7,23.9,23.9,30.7,15.6,30.7z M15.6,1.2c-8,0-14.5,6.5-14.5,14.5c0,8,6.5,14.5,14.5,14.5c8,0,14.5-6.5,14.5-14.5
			C30.1,7.6,23.6,1.2,15.6,1.2z"/>
	</g>
</g>
</svg>
