<?xml version="1.0" encoding="utf-8"?>
<!-- Generator: Adobe Illustrator 19.2.1, SVG Export Plug-In . SVG Version: 6.00 Build 0)  -->
<svg version="1.1" id="Layer_1" xmlns="http://www.w3.org/2000/svg" xmlns:xlink="http://www.w3.org/1999/xlink" x="0px" y="0px"
	 viewBox="0 0 31.2 31.2" style="enable-background:new 0 0 31.2 31.2;" xml:space="preserve">
<style type="text/css">
	.st0{fill:none;stroke:#4D4D4D;stroke-miterlimit:10;}
	.st1{fill:#4D4D4D;}
</style>
<g>
	<path class="st1" d="M26.4,13.3c0-0.7,0-1.4,0-1.8c0-0.5,0-0.7,0-0.7c0-1.4-1-3.2-2.4-3.2c0,0-1.6,0-3.7,0c-0.4,0-0.9,0-1.3,0
		c-1.8,0-3.9,0-5.9,0c-0.5,0-0.9,0-1.3,0c-2.1,0-3.7,0-3.7,0c-1.4,0-2.7,1.8-2.7,3.2c0,0,0,0.3,0,0.7c0,0.5,0,1.1,0,1.8
		c0,2,0,3.2,0,4.8c0,0.7,0,1.4,0,1.8c0,0.5,0,0.7,0,0.7c0,1.4,1.3,1.9,2.7,1.9c0,0,1.6,0,3.7,0c0.4,0,0.9,0,1.3,0c2,0,4,0,5.9,0
		c0.5,0,0.9,0,1.3,0c2.1,0,3.7,0,3.7,0c1.4,0,2.4-0.6,2.4-1.9c0,0,0-0.3,0-0.7c0-0.5,0-1.1,0-1.8C26.4,16.5,26.4,15,26.4,13.3z
		 M14.4,19.7v-8l6.1,3.9L14.4,19.7z"/>
	<g>
		<path class="st0" d="M15.6,30.4c-8.2,0-14.8-6.6-14.8-14.8S7.4,0.8,15.6,0.8c8.2,0,14.8,6.6,14.8,14.8
			C30.4,23.7,23.7,30.4,15.6,30.4L15.6,30.4z"/>
		<path class="st0" d="M15.6,30.7c-8.3,0-15.1-6.8-15.1-15.1S7.3,0.5,15.6,0.5c8.3,0,15.1,6.8,15.1,15.1
			C30.7,23.9,23.9,30.7,15.6,30.7z M15.6,1.1c-8,0-14.5,6.5-14.5,14.5s6.5,14.5,14.5,14.5s14.5-6.5,14.5-14.5
			C30,7.6,23.5,1.1,15.6,1.1z"/>
	</g>
</g>
</svg>
